<svg width="43" height="43" viewBox="0 0 43 43" fill="none" xmlns="http://www.w3.org/2000/svg">
<path d="M27.6564 3.035L39.1876 14.5654C42.8697 10.9029 43.0162 6.25732 39.4796 2.74214C35.9644 -0.731073 31.3189 -0.648037 27.6564 3.035ZM25.5644 5.14839C23.3456 7.32518 22.4251 9.81536 22.7385 12.2216L3.29832 33.168C2.50368 34.027 2.37778 35.2198 3.36082 36.2038L0.682249 39.6564C0.41082 39.9904 0.41082 40.4725 0.787606 40.8484L1.39475 41.477C1.75011 41.8323 2.23136 41.8538 2.60814 41.56L6.06082 38.8609C7.00278 39.8448 8.21618 39.718 9.05278 38.9234L19.893 28.8788V40.8279C19.893 41.8948 20.7501 42.7323 21.818 42.7323C22.0688 42.7351 22.3177 42.6877 22.55 42.593C22.7823 42.4982 22.9934 42.358 23.1707 42.1806C23.3481 42.0033 23.4883 41.7922 23.5831 41.5599C23.6778 41.3276 23.7252 41.0787 23.7224 40.8279V28.46L23.576 25.468L29.9581 19.5457C32.3653 19.86 34.8974 18.8761 37.0742 16.6796L25.5644 5.14839ZM5.43314 34.885L23.8903 15.3404C24.2456 15.9252 24.6849 16.4904 25.2081 17.035C25.7063 17.5407 26.2529 17.9962 26.8403 18.3948L7.37868 36.81L5.43314 34.885Z" fill="#FFD600"/>
</svg>
