<svg width="49" height="59" viewBox="0 0 49 59" fill="none" xmlns="http://www.w3.org/2000/svg">
<g clip-path="url(#clip0_868_1212)">
<path d="M31.1833 23.1684C30.5783 22.5116 29.5999 22.5116 29.0013 23.1684L25.9053 26.5225C25.7508 26.6902 25.6285 26.8928 25.5513 27.1164L24.56 29.9814L19.5716 35.4038C16.6687 33.3494 13.18 33.2935 11.1396 35.5156C10.4316 36.2843 9.981 37.2346 9.76216 38.2827C9.524 39.4427 8.53276 40.428 7.43853 40.4908C5.79075 40.5817 4.26526 41.2385 3.10666 42.4893C0.223046 45.6268 0.763724 51.2868 4.31032 55.137C7.85691 58.9872 13.0706 59.5742 15.9542 56.4437C17.1064 55.1929 17.7179 53.5298 17.7951 51.741C17.853 50.5531 18.7606 49.484 19.8291 49.2184C20.7946 48.9809 21.67 48.4847 22.378 47.7231C24.4248 45.501 24.3733 41.7207 22.481 38.5692L27.4758 33.1468L30.1148 32.0707C30.3208 31.9869 30.5075 31.8541 30.6619 31.6864L33.7515 28.3323C34.3566 27.6755 34.3566 26.6133 33.7515 25.9635L31.1833 23.1684ZM14.6411 40.5677C15.4605 40.5677 16.2464 40.9211 16.8258 41.5501C17.4052 42.1791 17.7307 43.0322 17.7307 43.9218C17.7307 44.8113 17.4052 45.6645 16.8258 46.2935C16.2464 46.9225 15.4605 47.2759 14.6411 47.2759C13.8217 47.2759 13.0359 46.9225 12.4565 46.2935C11.8771 45.6645 11.5515 44.8113 11.5515 43.9218C11.5515 43.0322 11.8771 42.1791 12.4565 41.5501C13.0359 40.9211 13.8217 40.5677 14.6411 40.5677Z" fill="#FFD600"/>
</g>
<path fill-rule="evenodd" clip-rule="evenodd" d="M39.8287 8.94408L32.6202 10.179C32.1637 10.2544 31.9188 10.4303 31.8856 10.7069C31.8524 10.9834 31.8632 12.9617 31.918 16.6417C31.8051 17.3356 31.2715 17.8334 30.317 18.1351C28.8852 18.5876 27.7149 18.2388 27.6029 18.1728C27.4908 18.1068 27.2169 17.9654 27.0551 17.5789C26.8932 17.1924 27.0426 16.5325 28.0262 16.0989C29.0097 15.6653 29.9559 15.4862 30.6033 15.6464C31.0349 15.7533 31.2673 15.8287 31.3005 15.8727L31.2756 8.62357C31.2922 8.34705 31.3752 8.17737 31.5246 8.11453C31.674 8.05168 35.3148 7.46794 42.4469 6.36328L41.9539 6.53659H41.9584C41.8348 6.57608 41.5574 6.68717 41.1264 6.86987C40.6954 7.05256 40.4745 7.31034 40.4637 7.6432C40.4653 12.5046 40.4574 14.982 40.4397 15.0753C40.4133 15.2153 40.114 15.6419 39.6826 15.9218C39.2513 16.2018 38.4942 16.495 37.5258 16.5617C36.5574 16.6284 36.2757 16.4284 35.8708 16.2218C35.4658 16.0151 35.4834 15.6285 35.5363 15.3952C35.589 15.162 35.8532 14.8153 36.5398 14.3954C37.2265 13.9755 37.7107 13.9621 38.503 13.9088C39.0312 13.8732 39.5007 13.9717 39.9115 14.2042V8.97622" fill="#FFD600"/>
<path fill-rule="evenodd" clip-rule="evenodd" d="M45.0825 26.5522L45.0391 32.2864C45.0236 33.2476 44.7244 33.8493 44.1416 34.0915C43.2674 34.4548 43.3287 34.4313 42.976 34.4665C42.6232 34.5016 41.5803 34.5602 41.2582 34.1852C40.9361 33.8102 41.0435 33.1657 41.703 32.7087C42.3625 32.2516 42.7766 31.9235 43.6815 31.9938C44.2847 32.0407 44.6035 32.0747 44.6378 32.0958L44.627 24C45.3054 25.2042 45.9258 26.0524 46.4882 26.5446C47.3317 27.2829 48.344 28.1501 48.39 28.9001C48.436 29.6501 48.4514 30.0485 47.9146 30.8219C47.5567 31.3376 47.2653 31.6891 47.0403 31.8766C47.6538 30.861 47.9657 30.1345 47.9759 29.697C47.9912 29.0407 47.8839 28.361 47.6232 28.1149C47.3624 27.8688 47.0403 27.3766 46.4729 27.154C45.9054 26.9313 45.9054 26.9313 45.0825 26.5522Z" fill="#FFD600"/>
<path fill-rule="evenodd" clip-rule="evenodd" d="M13.0524 19.5808L5.84382 20.8157C5.38733 20.8911 5.14248 21.0671 5.10928 21.3436C5.07608 21.6201 5.08688 23.5984 5.14167 27.2785C5.02878 27.9724 4.49508 28.4701 3.54059 28.7718C2.10885 29.2243 0.938561 28.8755 0.826512 28.8095C0.714463 28.7435 0.440565 28.6021 0.278716 28.2156C0.116867 27.8291 0.266266 27.1693 1.24981 26.7356C2.23335 26.302 3.17954 26.1229 3.82694 26.2832C4.25854 26.39 4.49093 26.4654 4.52413 26.5094L4.49923 19.2603C4.51583 18.9838 4.59883 18.8141 4.74823 18.7512C4.89763 18.6884 8.53843 18.1047 15.6706 17L15.1776 17.1733H15.182C15.0584 17.2128 14.781 17.3239 14.3501 17.5066C13.919 17.6893 13.6981 17.9471 13.6873 18.2799C13.689 23.1413 13.681 25.6187 13.6634 25.712C13.6369 25.852 13.3377 26.2786 12.9063 26.5585C12.4749 26.8385 11.7178 27.1318 10.7495 27.1984C9.78107 27.2651 9.49936 27.0652 9.09439 26.8585C8.68942 26.6518 8.70706 26.2652 8.7599 26.0319C8.81268 25.7987 9.07682 25.452 9.76344 25.0321C10.4501 24.6122 10.9344 24.5988 11.7266 24.5455C12.2548 24.51 12.7244 24.6084 13.1351 24.8409V19.6129" fill="#FFD600"/>
<path fill-rule="evenodd" clip-rule="evenodd" d="M27.5746 2.55221L27.5313 8.28639C27.5158 9.24759 27.2166 9.84928 26.6338 10.0915C25.7595 10.4548 25.8209 10.4313 25.4681 10.4665C25.1154 10.5016 24.0724 10.5602 23.7504 10.1852C23.4283 9.81022 23.5356 9.16569 24.1951 8.70866C24.8546 8.25163 25.2688 7.9235 26.1737 7.99382C26.7769 8.04069 27.0957 8.07467 27.13 8.09583L27.1191 0C27.7976 1.20422 28.418 2.05242 28.9804 2.54461C29.8239 3.28289 30.8362 4.15008 30.8822 4.90008C30.9282 5.65008 30.9436 6.04852 30.4067 6.82194C30.0489 7.33757 29.7575 7.68913 29.5325 7.87663C30.146 6.861 30.4579 6.13445 30.4681 5.69695C30.4834 5.0407 30.3761 4.36102 30.1153 4.11492C29.8546 3.86883 29.5325 3.37664 28.965 3.15398C28.3976 2.93133 28.3976 2.93133 27.5746 2.55221Z" fill="#FFD600"/>
<defs>
<clipPath id="clip0_868_1212">
<rect width="32.9556" height="35.7769" fill="white" transform="translate(1.25293 22.6797)"/>
</clipPath>
</defs>
</svg>
