<svg width="24" height="24" viewBox="0 0 24 24" fill="none" xmlns="http://www.w3.org/2000/svg">
<path d="M8.52681 18.9808C8.52681 19.9808 7.70863 20.799 6.70863 20.799C5.70863 20.799 4.89954 19.9808 4.89954 18.9808C4.89954 17.9808 5.70863 17.1626 6.70863 17.1626C7.70863 17.1626 8.52681 17.9808 8.52681 18.9808ZM15.7995 17.1626C14.7995 17.1626 13.9904 17.9808 13.9904 18.9808C13.9904 19.9808 14.7995 20.799 15.7995 20.799C16.7995 20.799 17.6177 19.9808 17.6177 18.9808C17.6177 17.9808 16.7995 17.1626 15.7995 17.1626ZM16.1595 12.6172C16.5731 12.6171 16.9744 12.476 17.297 12.2172C17.6196 11.9584 17.8443 11.5973 17.9341 11.1936L19.4359 5.34446H6.70863V4.43537C6.70863 3.95316 6.51707 3.4907 6.1761 3.14972C5.83512 2.80875 5.37266 2.61719 4.89045 2.61719H3.07227V4.43537H4.89045V14.4354C4.89045 14.9176 5.08201 15.38 5.42298 15.721C5.76396 16.062 6.22642 16.2535 6.70863 16.2535H17.6177C17.6177 15.7713 17.4262 15.3089 17.0852 14.9679C16.7442 14.6269 16.2817 14.4354 15.7995 14.4354H6.70863V12.6172H16.1595Z" fill="white"/>
<line x1="22" y1="1" x2="1" y2="22" stroke="white" stroke-width="2"/>
</svg>
