<svg width="48" height="38" viewBox="0 0 48 38" fill="none" xmlns="http://www.w3.org/2000/svg">
<path d="M15.6915 18.2159C13.0565 18.9711 11.2889 21.1933 11.4666 23.5708C12.3038 22.6516 13.5823 21.8581 15.1311 21.3363L15.6915 18.2159ZM7.53622 21.8184L5.20605 8.84596C5.18475 8.72889 5.22661 8.65662 5.22368 8.65445C9.46543 6.33762 14.2653 5.11271 19.1041 5.11271C19.2223 5.11271 19.3413 5.125 19.4603 5.12645C20.4847 4.15303 21.7904 3.47662 23.2489 3.24754C24.6361 3.0293 26.0432 2.91873 27.4481 2.86309C26.7144 1.85498 25.6503 1.11209 24.3806 0.911914C22.6247 0.636582 20.86 0.5 19.1034 0.5C13.4736 0.5 7.91883 1.9034 2.9383 4.62348C1.16332 5.59328 0.212301 7.61672 0.577286 9.64738L2.90746 22.6198C3.95247 28.4386 12.9192 32.8873 17.9218 32.8873C18.1854 32.8873 18.4175 32.854 18.6569 32.8295C17.664 31.5952 16.5316 29.9042 15.7561 27.9458C12.2597 27.0078 7.9673 24.2154 7.53622 21.8184ZM14.7001 11.8847C14.6464 11.587 14.5363 11.316 14.4012 11.0609C13.7953 11.7048 12.8832 12.1991 11.8073 12.3848C10.7315 12.5713 9.70189 12.4137 8.90804 12.0112C8.86985 12.2959 8.86104 12.5879 8.91465 12.8856C9.19665 14.4538 10.7197 15.5009 12.3177 15.2248C13.915 14.9488 14.9821 13.4529 14.7001 11.8847ZM45.062 9.23691C38.5276 5.66844 31.0039 4.36549 23.6198 5.52607C21.6142 5.84115 20.0155 7.42377 19.6512 9.45443L17.321 22.4268C16.1908 28.7176 24.3182 36.6104 28.9469 37.4111C33.5757 38.2125 43.9627 33.5239 45.0929 27.2332L47.4231 14.2608C47.7881 12.2294 46.837 10.206 45.062 9.23691ZM24.996 16.2322C25.278 14.6641 26.8011 13.6169 28.3991 13.8937C29.9971 14.1705 31.0634 15.6657 30.7821 17.2338C30.7285 17.5316 30.6184 17.8026 30.4832 18.0577C29.8774 17.4138 28.9653 16.9195 27.8894 16.7337C26.8136 16.5473 25.784 16.7048 24.9901 17.1074C24.9512 16.8219 24.9424 16.53 24.996 16.2322ZM30.1711 30.5957C26.0821 29.8883 23.3033 26.3126 23.6323 22.437C25.1451 24.2826 27.7602 25.7735 30.9386 26.3234C34.1169 26.8733 37.0941 26.3501 39.1584 25.1238C38.1171 28.8773 34.2594 31.3032 30.1711 30.5957ZM39.74 19.6591C39.1342 19.0152 38.2214 18.5209 37.1455 18.3352C36.0696 18.1487 35.04 18.3062 34.2462 18.7088C34.208 18.424 34.1992 18.1321 34.2528 17.8344C34.5348 16.2662 36.0579 15.2191 37.6559 15.4951C39.2532 15.7719 40.3202 17.2671 40.0389 18.8352C39.9853 19.1337 39.8752 19.4047 39.74 19.6591Z" fill="#FFD600"/>
</svg>
