<svg width="61" height="45" viewBox="0 0 61 45" fill="none" xmlns="http://www.w3.org/2000/svg">
<path fill-rule="evenodd" clip-rule="evenodd" d="M27.915 45C22.4544 42.7153 17.8651 41.3343 14.1472 40.857C10.4293 40.3796 8.51228 40.0897 8.3961 39.9874L11.1845 35.2306C4.87199 28.2373 1.3871 23.1132 0.729866 19.8581C-0.255989 14.9755 2.33189 5.42717 6.89145 3.0401C11.451 0.653022 17.9823 -1.84256 26.855 1.95506C35.7277 5.75268 36.2206 5.96969 36.0974 7.81425C36.0152 9.04396 35.4812 9.80348 34.4954 10.0928C34.9061 13.2033 34.9061 15.301 34.4954 16.386C33.8792 18.0136 35.6866 20.256 37.6994 21.3772C39.7122 22.4984 37.9359 23.4151 37.1517 23.8499C36.3675 24.2847 35.5832 24.3613 35.525 24.745C35.4863 25.0007 35.496 25.2054 35.5541 25.3588L36.106 25.461C36.2803 25.8191 36.3094 26.0578 36.1931 26.1772C36.0189 26.3562 33.6952 26.9188 33.1433 27.4559C32.5914 27.993 32.3591 27.9674 32.5914 28.5556C32.8239 29.1438 33.2014 29.8343 34.4794 30.0134C35.3314 30.1327 35.8252 30.2094 35.9608 30.2435C35.9802 30.4481 35.9414 30.5845 35.8446 30.6527C35.6994 30.755 34.7408 31.0363 34.7118 31.4199C34.6827 31.8036 34.8861 32.4685 35.1475 32.7498C35.4089 33.0312 35.6413 34.1053 34.1599 34.6167C32.6786 35.1282 28.6418 35.4103 26.4853 35.2837C25.0476 35.1993 24.3356 35.139 24.3493 35.1029L24.5547 39.009C25.8828 39.4912 26.6154 39.7866 26.7523 39.8951C26.8892 40.0036 26.9645 40.0518 26.9782 40.0398C26.9782 40.0398 27.2905 41.6932 27.915 45Z" fill="#FFD600"/>
<path d="M11.9258 37.7788L12.0638 37.7383L11.9258 37.7788Z" fill="#FFD600"/>
<path fill-rule="evenodd" clip-rule="evenodd" d="M51.4567 16.0911L44.2481 17.516C43.7916 17.603 43.5468 17.8061 43.5136 18.1251C43.4804 18.4442 43.4912 20.7268 43.546 24.973C43.4331 25.7737 42.8994 26.3481 41.9449 26.6961C40.5131 27.2182 39.3429 26.8158 39.2308 26.7396C39.1188 26.6635 38.8449 26.5003 38.683 26.0544C38.5212 25.6084 38.6706 24.847 39.6541 24.3467C40.6376 23.8464 41.5838 23.6397 42.2312 23.8246C42.6628 23.9479 42.8952 24.0349 42.9284 24.0857L42.9035 15.7213C42.9201 15.4022 43.0031 15.2065 43.1525 15.134C43.3019 15.0614 46.9427 14.3879 54.0749 13.1133L53.5819 13.3133H53.5863C53.4627 13.3588 53.1853 13.487 52.7543 13.6978C52.3233 13.9086 52.1024 14.206 52.0916 14.5901C52.0933 20.1994 52.0853 23.0579 52.0677 23.1656C52.0412 23.3271 51.742 23.8194 51.3106 24.1423C50.8792 24.4654 50.1221 24.8038 49.1538 24.8807C48.1854 24.9576 47.9037 24.7269 47.4987 24.4885C47.0937 24.25 47.1114 23.804 47.1642 23.5347C47.217 23.2656 47.4811 22.8656 48.1677 22.3811C48.8544 21.8966 49.3386 21.8812 50.1309 21.8196C50.6591 21.7786 51.1287 21.8922 51.5394 22.1605V16.1282" fill="#FFD600"/>
<path fill-rule="evenodd" clip-rule="evenodd" d="M56.7104 2.94486L56.667 9.56122C56.6515 10.6703 56.3523 11.3646 55.7695 11.644C54.8953 12.0632 54.9566 12.0361 54.6039 12.0767C54.2511 12.1173 53.2082 12.1849 52.8861 11.7522C52.564 11.3195 52.6714 10.5758 53.3309 10.0485C53.9904 9.52111 54.4045 9.1425 55.3094 9.22363C55.9127 9.27772 56.2314 9.31693 56.2657 9.34135L56.2549 0C56.9333 1.38948 57.5538 2.36818 58.1161 2.93609C58.9597 3.78795 59.9719 4.78855 60.0179 5.65394C60.064 6.51932 60.0793 6.97906 59.5425 7.87147C59.1846 8.46642 58.8932 8.87207 58.6683 9.08842C59.2818 7.91654 59.5936 7.07822 59.6038 6.57341C59.6192 5.8162 59.5118 5.03194 59.2511 4.74799C58.9903 4.46403 58.6683 3.89612 58.1008 3.63921C57.5333 3.3823 57.5333 3.3823 56.7104 2.94486Z" fill="#FFD600"/>
</svg>
